<?xml version="1.0" encoding="iso-8859-1"?>
<!-- Generator: Adobe Illustrator 23.0.1, SVG Export Plug-In . SVG Version: 6.00 Build 0)  -->
<svg version="1.1" id="Layer_1" xmlns="http://www.w3.org/2000/svg" xmlns:xlink="http://www.w3.org/1999/xlink" x="0px" y="0px"
	 viewBox="0 0 512 512" style="enable-background:new 0 0 512 512;" xml:space="preserve">
<g>
	<g>
		<path style="fill-rule:evenodd;clip-rule:evenodd;fill:#004A92;" d="M418.518,277.921c0,0,0.399-0.569,0.456,0.228
			c0.057,0.797-1.651,7.118-8.712,5.466c-1.082-0.285-10.192-3.758-6.207-15.203c0.74-2.107,5.011-9.737,15.716-6.947
			c9.281,2.392,11.274,13.894,11.331,15.773c0.057,1.31,1.367,13.609-11.217,22.776c-1.651,1.253-10.99,9.68-34.563,9.281
			c-1.537,0-25.623-0.512-42.706-14.577c0,0-0.342-0.228-0.342-0.399c0-0.171,0.285-0.285,0.683,0
			c0.74,0.512,10.42,7.687,27.332,9.851c2.392,0.285,28.471,2.221,44.756-11.787c2.221-1.936,11.445-12.185,5.239-20.499
			c-2.392-2.562-5.751-3.246-8.598-0.854c-3.303,2.79-1.993,6.833-0.285,8.029C413.222,280.198,415.557,281.053,418.518,277.921z
			 M480.754,204.467c0,0,0.512-0.228,0.057-0.512c-0.456-0.285-10.42-4.726-16.228,1.082c-1.708,1.708-4.669,7.061-1.253,9.965
			c0,0-4.954,1.31-5.182,9.338c0,0,0,0.911,0.854-0.512c0.456-0.683,3.36-5.979,14.406-6.548c1.48-0.057,5.125-0.683,6.89-5.239
			c0.285-0.683-0.057-0.74-0.854-0.342c-0.74,0.399-6.377,3.132-10.022,0.285c-1.822-1.424-0.626-4.84,3.53-6.15
			C477.281,204.467,480.754,204.467,480.754,204.467z M107.107,227.414c0.171,0,0.342,0,0.512,0
			c2.505,0.171,4.783,1.025,6.776,2.392c-0.512-1.196-1.025-2.278-1.651-3.246c-0.683-0.968-1.594-1.879-2.335-2.505
			c-1.765-1.31-3.075-1.765-4.043-1.993C106.026,222.688,105.513,224.453,107.107,227.414z M180.277,273.081
			c-0.057-0.114-0.171-0.171-0.228-0.171c-0.342,0-0.512,0.569-1.025,1.196c-0.342,0.456-1.708,2.107-3.758,3.701
			c-2.392,1.765-10.477,8.029-17.31,8.029l0,0c-1.708,0-3.246-0.342-4.498-1.139c-2.562-1.31-3.36-4.214-2.392-8.655
			c0.512-2.392,1.31-4.441,2.448-7.061c0.057-0.171,0-0.342-0.114-0.399c-0.114-0.114-0.342-0.057-0.456,0.057
			c-1.537,1.765-3.075,3.36-4.555,4.84c-0.911,0.911-1.822,1.822-2.733,2.619c-1.196,1.139-2.448,2.164-3.644,3.132
			c-3.416,2.392-10.249,6.548-16.057,6.548l0,0c-0.626,0-2.107-0.171-2.107-0.228c-1.025-0.171-1.993-0.512-2.79-0.968
			c-2.562-1.31-3.36-4.214-2.392-8.655c0.171-0.797,0.399-1.537,0.626-2.278h0.057v-0.057c0-0.114,0-0.171,0-0.228h-4.1
			c-9.168,12.527-19.417,19.474-26.933,18.563c-13.438-1.594-17.652-19.417-10.534-37.98c3.416-8.883,8.94-16.456,15.488-21.41
			c-0.569-1.082-1.082-2.448-1.48-3.986c-0.399-1.139-0.683-2.392-0.683-3.815c-9.737,5.125-21.068,16.456-25.168,30.35
			c-6.15,20.84,0.911,41.453,18.392,42.136c5.58,0.171,15.83-0.057,29.211-16.855c-0.399,1.424-0.626,2.392-0.569,2.278
			c-0.456,3.587-0.399,6.207,2.562,9.224c1.765,1.708,3.986,2.278,5.409,2.505v-0.057c0.854,0.171,1.537,0.171,1.765,0.228
			c0.114,0,0.114,0,0.114,0l0,0c10.477-0.171,17.481-5.979,21.524-10.819c0.399-0.399,0.74-0.74,0.968-1.025
			c-0.456,3.644,0.171,6.548,1.936,8.598c2.733,3.189,7.061,3.246,7.288,3.246h0.057c18.221-0.285,25.51-20.157,25.567-20.328
			C180.504,273.309,180.391,273.138,180.277,273.081z M314.373,309.238c8.712-0.114,14.805-5.068,16-12.926
			c0.456-2.904,0.569-12.698-15.887-16.114l-0.854-0.228l0.968-2.505h-0.114l0.456-1.082c0.968-2.164,1.879-4.214,1.993-4.555
			l0.114-0.171l0.057-0.057c0.342-0.74,0.968-2.107,1.822-3.872c1.993-4.157,5.068-10.648,8.256-17.367
			c1.594-3.246,3.416-7.118,5.239-10.933l0.171-0.228c4.783-9.851,12.015-24.257,12.812-25.851l0.114-0.228
			c0.626-1.139,1.196-2.164,1.822-3.132l0,0l0.342-0.569c3.587-5.979,5.751-8.143,8.086-9.452c-1.196-0.399-2.05-0.512-3.53-0.569
			c-0.228,0-0.399,0-0.626,0c-5.808,0-10.762,2.904-13.609,7.915c-0.114,0.171-0.399,0.683-0.683,1.31l-0.114,0.171l0,0
			c-0.854,1.594-7.061,13.096-8.256,15.26c-2.335,4.384-4.84,9.395-5.409,10.591c0,0.057-0.342,0.683-0.911,1.765l-0.114,0.228
			l-15.089,29.382l-0.342,0.569l-1.025,2.05c-0.456,0.911-0.797,1.537-0.911,1.765c-0.057,0.057-2.619,4.954-3.929,7.744
			l-0.171,0.399h-0.456c-0.626,0-1.48,0-2.448,0c-4.498,0-12.47,0.171-25.111,1.196c-3.986,0.342-10.079,1.139-16.513,1.993
			c-9.509,1.31-19.417,2.619-25.054,2.733h-0.171h-0.171h-0.399c-0.342,0-0.626,0-0.911,0c-0.512,0-0.968-0.057-1.367-0.114
			c-1.936-0.342-3.36-1.196-4.214-2.619c-1.253-2.05-1.139-5.068,0.342-8.883c0.171-0.456,0.399-1.025,0.74-1.708l0.171-0.285
			c0.342-0.74,0.968-2.107,1.879-3.872c1.993-4.157,5.068-10.648,8.256-17.367c3.986-8.37,11.217-23.004,15.089-30.862
			c1.082-2.164,1.879-3.815,2.335-4.669l0.399-0.797l0.114-0.228c4.897-8.826,7.402-11.673,10.249-13.153
			c-1.139-0.399-2.05-0.512-3.53-0.569c-0.228,0-0.399,0-0.626,0c-5.808,0-10.762,2.904-13.609,7.915
			c-0.228,0.399-1.025,1.879-2.448,4.498c-0.683,1.31-2.05,3.701-3.303,6.093c-1.424,2.676-2.847,5.352-3.303,6.15
			c-2.335,4.328-4.84,9.395-5.409,10.591c-0.057,0.171-3.53,6.947-7.232,14.121l-0.285,0.569
			c-6.548,12.812-10.079,19.702-10.477,20.442l-0.456,0.911c-0.74,1.367-1.253,2.676-1.765,4.1
			c-1.936,4.897-1.651,9.452,0.683,12.812c2.05,2.961,5.751,4.669,11.274,5.239c0.797,0.057,1.765,0.114,2.904,0.114
			c6.605,0,17.823-1.537,29.666-3.189c14.064-1.936,30.065-4.214,42.478-4.441h0.569l-0.228,0.569
			c-1.936,4.954-1.993,9.68-0.171,13.666c1.822,3.929,5.409,6.833,10.42,8.484c1.594,0.512,3.53,1.196,5.523,1.196h-0.114V309.238z
			 M311.355,285.95h0.285c0.342,0,8.826,0.342,12.072,2.79c2.335,1.765,3.758,4.1,3.872,6.548c0.171,2.448-0.911,4.669-3.018,6.434
			c-1.651,1.367-3.986,2.107-6.662,2.107c-0.171,0-0.342,0-0.569,0c-0.171,0-0.342,0-0.569-0.057
			c-4.271-0.456-6.947-3.758-7.232-9.054c-0.114-2.05,0.911-5.808,1.765-8.598L311.355,285.95z M477.85,224.339
			c-1.708-0.569-2.619-0.683-4.612-0.626c-6.32,0.171-11.73,3.587-14.577,9.224c-0.228,0.456-1.196,2.448-2.278,4.783
			c0,0,0.057,0,0.114,0.057c-1.765,4.328-6.491,16.57-11.274,27.389l0,0c-0.171,0.399-0.285,0.74-0.399,0.854l-0.114,0.228
			c-5.182,10.648-7.63,12.983-10.534,14.52c1.708,0.569,2.676,0.683,4.612,0.626c6.32-0.171,11.73-3.587,14.52-9.224
			c0.285-0.456,1.253-2.278,2.335-4.783l0,0c0.683-1.651,1.537-3.872,2.562-6.434c2.505-6.434,5.922-15.374,9.68-23.232l0,0
			C472.726,228.041,475.06,225.877,477.85,224.339z"/>
		<path style="fill:#EE3124;" d="M316.138,232.425c-1.424,4.669-12.983,23.744-14.805,27.275
			c-6.036,11.673-5.182,13.552-3.872,15.032c0,0.057,0,0.057,0,0.057v0.057c-3.075,0.854-3.303,1.082-5.523,1.082
			c-6.434,0-8.712-3.473-6.548-9.395c1.196-3.246,8.427-16.285,9.623-18.335c-0.456,0.854-0.569,1.082-0.057,0.114
			c0.285-0.512,0.285-0.512,0.057-0.114c1.139-2.221,4.384-8.484,4.555-8.997c0.399-1.196-0.057-1.594-1.082-1.594
			c-1.139,0-3.473,1.48-6.377,3.929v-0.057c-4.897,3.701-10.762,8.313-15.716,18.221c-5.694,11.502-5.011,13.495-3.644,14.975
			c0,0.057,0,0.114-0.057,0.171c-3.018,0.854-3.246,1.082-5.466,1.082c-6.434,0-8.769-3.416-6.719-9.395
			c1.31-3.815,7.402-14.691,9.167-18.221c1.822-3.53,4.214-8.427,4.441-9.168c0.342-1.253-0.057-1.594-1.082-1.594
			c-1.139,0-3.416,1.48-6.264,3.929l0,0c-4.84,3.644-10.591,8.313-15.374,18.221c-5.58,11.673-4.669,13.552-3.246,15.089
			c0,0,0.057,0,0.057,0.057l0.057-0.057c0,0.057,0,0.057-0.057,0.114c-3.018,0.854-3.246,1.082-5.466,1.082
			c-6.434,0-8.826-3.416-6.89-9.395c1.139-3.36,13.495-28.357,15.659-33.367c0.057-0.057,0.057-0.114,0.057-0.171
			c7.118-3.473,10.192-4.555,15.545-7.118c1.424-0.683,1.594,0.114,1.31,0.911c-0.683,1.822-1.822,4.555-2.733,6.662
			c-0.512,1.196-0.968,2.221-1.196,2.733c-0.114,0.171-0.171,0.342-0.285,0.569c9.054-7.573,16.798-11.217,21.296-11.274
			c4.1,0,6.093,3.132,5.011,6.833c-0.512,1.651-1.139,3.416-1.993,5.239c9.851-8.086,18.107-12.072,22.719-12.072
			C315.398,225.535,317.277,228.724,316.138,232.425z M94.068,193.648c-22.719,1.025-48.685,25.794-58.82,58.251
			c-11.388,36.158,0.797,67.703,28.471,66.45c3.701-0.171,7.402-0.911,10.99-2.164c1.879-0.626,3.758-1.424,5.58-2.278
			c4.441-2.164,8.769-5.011,12.812-8.427c10.363-8.256,17.424-17.424,17.595-17.538c0.285-0.285,0.228-0.569,0.057-0.683
			c-0.171-0.057-0.512,0.228-0.512,0.228c-0.911,0.911-1.822,1.765-2.733,2.619c-10.534,9.737-20.783,15.089-29.382,17.538
			c-0.569,0.171-1.196,0.342-1.822,0.456c-1.822,0.456-3.701,0.74-5.523,0.797c-23.631,0.968-31.204-28.186-18.449-60.244
			c10.933-27.446,33.31-46.862,50.962-46.635c9.737,0.114,17.082,6.207,20.67,16.228c0.285,0.285,0.626,0.569,0.911,0.797
			C120.432,202.873,109.1,192.965,94.068,193.648z M217.573,296.768c-11.673,0.057-29.382-4.84-28.584-33.823
			c-2.05,1.537-3.815,2.733-5.352,3.701c-4.441,3.246-16.456,11.217-23.744,7.061c-2.79-1.367-3.815-4.328-2.847-8.997
			c0.512-2.505,1.367-4.612,2.392-7.118c-10.363,11.616-19.417,17.823-27.787,17.823c-7.687,0-8.029-4.783-7.004-9.509
			c0.911-4.384,7.63-17.709,12.527-28.129l-4.498,2.505c0,0-5.011,3.189-8.598,3.929c0,0,0.456,16.057-3.53,25.168h-4.612
			c0.512-1.48,3.36-10.42,3.986-24.2c0,0-14.919,3.416-24.086-13.78c-0.626-1.196-5.751-12.185,2.221-20.271
			c0.797-0.854,2.107-1.765,3.701-2.392c0.569-0.228,1.196-0.399,1.879-0.569c1.082-0.285,2.278-0.342,3.53-0.285
			c0.057,0,0.114,0,0.171,0c0.171,0,0.342,0.057,0.456,0.057c0.171,0,0.399,0.057,0.569,0.114h0.057
			c0.228,0.057,0.456,0.114,0.683,0.171c4.954,1.253,9.566,5.922,12.527,15.488c0.114,0.342,0.228,0.74,0.342,1.139
			c0.114,0.342,0.228,0.683,0.285,1.025v0.057c0.285,1.025,0.512,2.107,0.74,3.246c0.057,0.057,0.057,0.057,0.057,0.057
			c0.512,2.619,0.911,5.694,1.082,9.224c0,0,5.922-1.424,15.659-6.491c0-0.057,0-0.057,0.057-0.114
			c0.569-0.285,1.139-0.569,1.651-0.797c0.228-0.114,0.399-0.228,0.626-0.342c0,0.057,0,0.057,0,0.057
			c5.808-2.733,8.712-3.701,13.039-5.808c1.367-0.626,1.537,0.114,1.31,0.854c-1.025,2.79-3.246,7.744-3.872,9.111
			c-5.979,12.926-11.616,23.517-12.527,28.072c-0.228,1.196-0.114,2.392,1.48,2.392c2.904,0,10.591-6.377,18.221-15.488
			c4.555-5.523,9.452-13.324,11.559-17.652c7.175-3.189,10.99-4.783,15.943-7.118c1.367-0.626,1.594,0.114,1.253,0.854
			c-0.057,0.114-0.114,0.285-0.171,0.399c-0.228,0.512-0.456,1.025-0.683,1.594c-0.683,1.537-1.537,3.246-2.221,4.612
			c-0.797,1.594-1.367,2.847-1.765,3.473c-1.993,3.872-4.043,7.744-5.922,11.388c-1.31,2.733-2.505,5.239-3.416,7.402
			c-1.082,2.505-1.879,4.555-2.164,6.036c-0.171,0.683-0.171,1.31,0.171,1.765c0.228,0.342,0.626,0.569,1.31,0.569
			c0.285,0,0.569-0.057,0.854-0.114c2.107-0.683,5.694-2.847,9.395-5.58c1.196-0.854,3.929-2.733,5.239-3.986v0.057
			c0.626-0.626,1.31-1.196,1.708-1.48c0.399-1.594,9.111-30.293,22.15-46.122c2.904-3.53,10.648-10.876,18.791-7.573
			c0.797,0.342,1.822,0.854,2.733,1.879l0,0l0,0l0,0c8.37,11.958-11.787,37.012-32.456,53.98v0.057v0.057l0,0
			c-3.36,12.128-1.879,27.047,3.644,34.677c0.171,0.342,3.872,6.377,12.185,6.719C218.655,295.971,218.94,296.711,217.573,296.768z
			 M206.583,240.397c4.897-3.303,9.851-10.022,10.306-10.705c7.175-10.648,9.111-17.139,9.281-20.442
			c0.171-3.246-2.221-1.139-3.416,0.456C212.334,223.998,206.583,240.397,206.583,240.397z M120.033,238.973
			c0,0-0.114-3.986-1.31-8.598c-0.342-1.139-0.626-2.221-1.025-3.189c-0.683-1.879-1.424-3.473-2.278-4.783
			c-0.854-1.424-1.822-2.562-2.733-3.416c-2.904-2.733-5.979-2.904-7.858-1.651v-0.057c-0.228,0.228-0.456,0.399-0.683,0.626
			c-0.683,0.626-3.189,4.328,0.171,10.648C107.62,234.873,113.143,238.973,120.033,238.973z M381.051,220.752
			c0,0,0.797-0.228-0.512-0.854c-5.865-2.79-6.491-8.598-6.719-9.737c-0.228-1.139-0.512-7.459-5.011-6.833
			c-4.954,0.626-4.271,5.922-4.043,7.004C367.442,221.606,381.051,220.752,381.051,220.752z M412.482,249.166
			c-3.132,0.626-2.335,0.228-0.456-0.74c2.847-1.48,6.207-6.719,3.815-11.16c-2.79-5.239-14.007-2.79-17.367,4.384
			c-2.733,5.979-2.448,11.047-0.114,15.659c13.153,31.944-30.862,31.545-40.143,30.976c-1.196-0.114-1.936-0.114-1.822-0.456
			c0.171-0.342,1.48-0.057,2.164-0.057c18.734-0.74,27.616-8.427,28.698-14.178c0.626-2.505,0.342-4.954-0.285-7.345
			c0,0-0.911-2.961-1.651-5.58c-0.342-1.082-0.626-2.107-0.854-2.847c-3.018,2.733-6.264,5.352-7.232,6.036
			c-16.684,12.812-30.065,13.951-37.524,10.648c-0.057-0.057-0.057-0.057-0.114-0.057c-0.114-0.057-0.228-0.114-0.342-0.171
			c-2.392-1.367-4.1-3.075-5.125-5.068c-1.082-1.936-1.537-4.1-1.537-6.32c0-0.342,0-0.74,0.057-1.139
			c-5.125,3.986-7.288,10.534-7.288,10.534c0.285-15.602,8.256-19.759,9.851-20.442c1.253-2.904,2.847-5.637,4.384-7.915
			c1.424-1.936,2.847-3.644,4.328-5.182c7.402-7.687,15.374-10.477,16.399-10.819c13.951-4.328,19.929-0.228,20.954,0.626
			c1.936,1.594,2.847,3.416,3.132,5.296c0.683,5.808-5.182,13.951-15.887,18.961c-11.901,5.523-21.922,4.726-21.922,4.726
			s-1.253,3.416,0,6.15c2.278,5.011,12.698,2.05,15.032,1.31c8.598-2.619,16.798-7.801,21.979-11.502
			c0-0.171-0.057-0.342-0.057-0.456c-0.683-6.833,1.993-12.299,5.466-16.513c0.114-0.171,0.285-0.342,0.399-0.512
			c8.086-10.363,29.097-14.235,33.709-2.733C425.522,242.105,419.429,247.742,412.482,249.166z M349.847,249.792
			c7.516-0.114,18.221-5.352,21.182-10.534c2.961-5.125,0.854-5.637,0.342-5.637C358.445,233.165,349.847,249.792,349.847,249.792z"
			/>
	</g>
</g>
</svg>
